<svg width="602" height="77" xmlns="http://www.w3.org/2000/svg" xmlns:xlink="http://www.w3.org/1999/xlink" overflow="hidden"><defs><clipPath id="clip0"><rect x="105" y="846" width="602" height="77"/></clipPath></defs><g clip-path="url(#clip0)" transform="translate(-105 -846)"><path d="M475.151 76.6188C469.261 76.6237 464.483 71.8529 464.478 65.9631 464.478 65.9572 464.478 65.9514 464.478 65.9455L464.478 50.4926 483.918 38.3094 464.478 26.1263 464.478 10.6733C464.473 4.78322 469.244 0.00463336 475.134-1.35425e-15 475.14-4.39965e-06 475.145-4.39965e-06 475.151-1.35425e-15L589.126 0C595.016-0.00484405 599.795 4.76589 599.799 10.6557 599.799 10.6616 599.799 10.6674 599.799 10.6733L599.799 65.9455C599.805 71.8352 595.034 76.6138 589.145 76.6188 589.138 76.6188 589.132 76.6188 589.126 76.6188ZM531.342 27.9304C530.432 29.4376 529.436 30.9563 528.38 32.4452 527.324 33.9341 526.213 35.4025 525.082 36.8064 523.951 38.2103 522.841 39.5246 521.785 40.7078L521.785 45.4433 533.766 45.4433 533.766 51.0792 539.288 51.0792 539.288 45.443 542.585 45.443 542.585 40.9186 539.288 40.9186 539.288 23.5879 533.671 23.5879C532.974 25.0765 532.196 26.5262 531.342 27.9304ZM320.389 76.4282C314.604 76.4333 309.911 71.7482 309.906 65.9639 309.906 65.9577 309.906 65.9516 309.906 65.9455L309.906 50.5982 329.257 38.471 329.515 38.3094 329.257 38.1478 309.906 26.021 309.906 10.6733C309.901 4.88869 314.587 0.195438 320.371 0.190594 320.377 0.190589 320.383 0.190589 320.389 0.190594L434.364 0.190594C440.149 0.185961 444.842 4.8717 444.847 10.6565 444.847 10.6621 444.847 10.6677 444.847 10.6733L444.847 33.5747 434.664 33.5747 434.664 43.898 444.847 43.898 444.847 65.9455C444.851 71.7301 440.166 76.4234 434.381 76.4282 434.376 76.4282 434.37 76.4282 434.364 76.4282ZM368.518 50.1785C370.286 51.0933 372.615 51.5587 375.439 51.5587 378.734 51.5587 381.352 50.804 383.222 49.3158 385.092 47.8277 386.041 45.7761 386.041 43.2195 386.076 41.6171 385.468 40.0672 384.353 38.9155 383.234 37.7513 381.685 37.0389 379.753 36.7972L379.753 36.7008C383.378 35.7974 385.216 33.5274 385.216 29.9538 385.258 28.0321 384.387 26.2042 382.868 25.0269 381.31 23.769 379.101 23.1286 376.302 23.1286 373.97 23.0793 371.659 23.5783 369.555 24.5855L369.555 29.531C370.37 28.9645 371.261 28.5145 372.2 28.1938 373.078 27.9002 373.997 27.7497 374.923 27.7482 376.29 27.7482 377.33 28.0303 378.014 28.5868 378.698 29.1434 379.043 29.99 379.043 31.1027 379.102 32.1692 378.591 33.1871 377.701 33.7771 376.811 34.3687 375.456 34.6687 373.675 34.6687L371.315 34.6687 371.315 39.3081 373.865 39.3081C375.722 39.3081 377.202 39.6436 378.265 40.3049 378.761 40.5997 379.174 41.0151 379.466 41.5125 379.738 42.0118 379.876 42.5734 379.865 43.1421 379.913 44.2243 379.43 45.2617 378.571 45.9221 377.712 46.5835 376.497 46.9189 374.957 46.9189 373.788 46.9265 372.625 46.7569 371.507 46.4158 370.434 46.0796 369.423 45.5695 368.516 44.9059ZM10.4827 76.2376C4.6981 76.2425 0.00484409 71.5571-1.35425e-15 65.7725-4.89664e-06 65.7666-4.89664e-06 65.7608-1.35425e-15 65.755L0 10.4827C-0.00484409 4.6981 4.68055 0.00484409 10.4651-1.35425e-15 10.471-4.89664e-06 10.4768-4.89664e-06 10.4827-1.35425e-15L124.458 0C130.242-0.00484409 134.936 4.68055 134.941 10.4651 134.941 10.471 134.941 10.4768 134.941 10.4827L134.941 33.1939 124.377 33.1939 124.377 43.5168 134.941 43.5168 134.941 65.755C134.945 71.5395 130.26 76.2328 124.475 76.2376 124.47 76.2376 124.464 76.2376 124.458 76.2376ZM65.8994 29.6096 65.8994 50.8886 71.9382 50.8886 71.9382 22.784 68.2765 22.784C67.089 23.679 65.8252 24.468 64.4997 25.142 63.0762 25.8691 61.587 26.4597 60.052 26.9058L60.052 32.0049C60.602 31.9384 61.1466 31.8326 61.6816 31.6885 62.223 31.5441 62.7544 31.3649 63.2727 31.1518 63.7706 30.9475 64.2544 30.7105 64.7212 30.4424 65.1407 30.2045 65.5355 29.9253 65.8998 29.6092L65.8998 29.6092ZM165.245 76.2376C159.461 76.2429 154.768 71.5582 154.762 65.774 154.762 65.7677 154.762 65.7613 154.762 65.755L154.762 50.4076 174.113 38.2804 174.371 38.1188 174.113 37.9572 154.762 25.8305 154.762 10.4827C154.758 4.6981 159.443 0.00484409 165.228-1.35425e-15 165.233-4.89664e-06 165.239-4.89664e-06 165.245-1.35425e-15L279.22 0C285.005-0.00463339 289.698 4.68111 289.703 10.4659 289.703 10.4715 289.703 10.4771 289.703 10.4827L289.703 33.3845 279.521 33.3845 279.521 43.7078 289.703 43.7078 289.703 65.755C289.708 71.5395 285.022 76.2328 279.238 76.2376 279.232 76.2376 279.226 76.2376 279.22 76.2376ZM223.88 28.6692C224.542 29.2676 224.877 30.1638 224.877 31.3337 224.881 31.9132 224.777 32.4884 224.572 33.0303 224.345 33.599 224.031 34.1292 223.642 34.6023 223.179 35.1686 222.666 35.6917 222.108 36.1652 221.505 36.6863 220.793 37.2409 219.99 37.8139 219.225 38.362 218.409 38.9849 217.565 39.6642 216.7 40.364 215.913 41.1545 215.217 42.0222 214.486 42.9384 213.886 43.9519 213.434 45.0336 212.947 46.2355 212.705 47.523 212.725 48.8199L212.725 50.8886 231.014 50.8886 231.014 45.8657 219.356 45.8657C219.372 45.4597 219.505 45.067 219.739 44.7347 220.036 44.2904 220.383 43.882 220.774 43.5176 221.251 43.067 221.754 42.6445 222.279 42.252 222.845 41.8262 223.441 41.3913 224.052 40.9583 224.955 40.3358 225.838 39.6809 226.679 39.0142 227.503 38.3614 228.252 37.6185 228.912 36.7995 229.561 35.9874 230.084 35.0828 230.465 34.1156 230.871 33.0377 231.069 31.8929 231.05 30.7413 231.064 29.6352 230.859 28.5372 230.445 27.5111 230.057 26.5668 229.457 25.7241 228.692 25.0475 227.872 24.3413 226.916 23.8096 225.884 23.4846 224.671 23.1052 223.406 22.9207 222.136 22.938 219.27 22.9026 216.457 23.7093 214.046 25.2579L214.046 30.5865C215.03 29.7086 216.15 28.9949 217.362 28.4728 218.46 28.011 219.639 27.7715 220.831 27.768 222.195 27.768 223.219 28.0715 223.88 28.6692ZM463.375 42.2074 463.375 42.0168 436.46 42.0168 436.46 35.6842 463.376 35.6842 463.376 29.1083 480.105 38.6902 463.376 48.2725ZM308.613 41.8262 308.613 41.6357 281.698 41.6357 281.698 35.303 308.613 35.303 308.613 28.7271 325.342 38.3094 308.613 47.8917ZM153.469 41.6357 153.469 41.4451 126.554 41.4451 126.554 35.112 153.47 35.112 153.47 28.5369 170.198 38.1188 153.47 47.7011ZM533.766 40.9186 527.21 40.9186C527.756 40.2447 528.33 39.5132 528.916 38.7424 529.497 37.9778 530.085 37.1712 530.661 36.3463 531.237 35.5214 531.788 34.6797 532.309 33.835 532.829 32.9903 533.318 32.1452 533.766 31.3142L533.766 40.9202 533.766 40.9202Z" stroke="#FFFFFF" stroke-width="0.381188" fill="#FFFFFF" transform="matrix(1.00271 0 0 1 105.287 846.191)"/></g></svg>