<svg width="96" height="96" xmlns="http://www.w3.org/2000/svg" xmlns:xlink="http://www.w3.org/1999/xlink" overflow="hidden"><defs><clipPath id="clip0"><rect x="0" y="0" width="96" height="96"/></clipPath></defs><g clip-path="url(#clip0)"><path d="M80.4 39.82C77.4 38.33 73.84 38.29 70.51 38.82 69.5237 36.7513 68.3095 34.7992 66.89 33 69.72 30.61 73.24 28.46 76.46 28.61 77.5646 28.6569 78.4981 27.7996 78.545 26.695 78.5919 25.5904 77.7346 24.6569 76.63 24.61L76.17 24.61C71.71 24.61 67.41 27.31 64.17 30.04 63.57 29.46 62.95 28.91 62.31 28.4 62.3734 28.0031 62.4069 27.6019 62.41 27.2 62.41 22.2 58.41 17.98 52.88 16.29 53.0234 15.928 53.2225 15.5906 53.47 15.29 54.57 13.91 56.69 13.29 59.77 13.55 60.8746 13.6273 61.8327 12.7946 61.91 11.69 61.9873 10.5854 61.1546 9.62732 60.05 9.55 55.57 9.24 52.3 10.33 50.33 12.81 49.6771 13.6386 49.1914 14.5861 48.9 15.6 48.46 15.6 48.01 15.55 47.56 15.55 46.7944 15.5542 46.0296 15.6043 45.27 15.7 44.9818 14.6486 44.4853 13.6658 43.81 12.81 41.81 10.33 38.57 9.23 34.09 9.55 32.9854 9.63008 32.1549 10.5904 32.235 11.695 32.3151 12.7996 33.2754 13.6301 34.38 13.55 37.44 13.32 39.57 13.91 40.67 15.29 40.9816 15.6897 41.2156 16.1442 41.36 16.63 36.26 18.48 32.71 22.53 32.71 27.25 32.7144 27.8245 32.7747 28.3972 32.89 28.96 32.31 29.46 31.75 29.96 31.2 30.54 27.85 27.64 23.2 24.66 18.48 24.87 17.3754 24.9169 16.5181 25.8504 16.565 26.955 16.6119 28.0596 17.5454 28.9169 18.65 28.87 21.98 28.73 25.65 31.07 28.57 33.58 27.2563 35.3324 26.1269 37.2157 25.2 39.2 21.71 38.55 17.89 38.5 14.72 40.08 13.7163 40.541 13.2763 41.7285 13.7374 42.7323 14.1984 43.736 15.3859 44.1759 16.3896 43.7149 16.427 43.6977 16.4638 43.6794 16.5 43.66 18.7881 42.7151 21.3086 42.485 23.73 43 22.5637 46.6353 21.9798 50.4322 22 54.25 21.9729 59.8019 23.2506 65.2825 25.73 70.25 22.9 72.25 20.29 74.84 19.2 78.1 18.8438 79.1493 19.4057 80.2888 20.455 80.645 21.5043 81.0012 22.6438 80.4393 23 79.39 23.72 77.21 25.59 75.31 27.77 73.74 32.48 80.79 39.77 85.3 48 85.3 56.23 85.3 63.26 80.89 68 74 69.8675 75.2937 71.3168 77.1045 72.17 79.21 72.5262 80.2676 73.6724 80.8362 74.73 80.48 75.7876 80.1238 76.3562 78.9776 76 77.92 74.8219 74.9135 72.7616 72.3338 70.09 70.52 72.6755 65.4873 74.0164 59.908 74 54.25 74.0084 50.3101 73.3734 46.3952 72.12 42.66 74.3257 42.2683 76.5976 42.5254 78.66 43.4 79.646 43.8924 80.8445 43.4944 81.34 42.51 81.8271 41.5186 81.4183 40.3201 80.427 39.833 80.418 39.8286 80.409 39.8243 80.4 39.82ZM30.85 57.9C28.85 57.9 27.25 55.9 27.25 53.4 27.25 50.9 28.86 48.9 30.85 48.9 32.84 48.9 34.45 50.9 34.45 53.4 34.45 55.9 32.84 57.9 30.85 57.9ZM39.66 70.9C38.06 72.08 36.05 72.07 35.16 70.9 34.27 69.73 34.85 67.77 36.44 66.59 38.03 65.41 40.05 65.42 40.94 66.59 41.83 67.76 41.26 69.69 39.66 70.87ZM39 43C37.067 43 35.5 41.433 35.5 39.5 35.5 37.567 37.067 36 39 36 40.933 36 42.5 37.567 42.5 39.5 42.5 41.433 40.933 43 39 43ZM50 81.18C48.6679 81.26 47.3321 81.26 46 81.18L46 29 50 29ZM54.3 39.5C54.3 37.567 55.867 36 57.8 36 59.733 36 61.3 37.567 61.3 39.5 61.3 41.433 59.733 43 57.8 43 55.8672 43.0276 54.278 41.4832 54.2504 39.5504 54.2501 39.5336 54.25 39.5168 54.25 39.5ZM61.59 70.84C60.71 72.04 58.69 72.05 57.09 70.84 55.49 69.63 54.92 67.72 55.81 66.53 56.7 65.34 58.71 65.32 60.31 66.53 61.91 67.74 62.43 69.65 61.54 70.84ZM65.85 57.9C63.85 57.9 62.25 55.9 62.25 53.4 62.25 50.9 63.86 48.9 65.85 48.9 67.84 48.9 69.45 50.9 69.45 53.4 69.45 55.9 67.84 57.9 65.85 57.9Z" fill="#FFFFFF"/></g></svg>